<?xml version="1.0" encoding="UTF-8" standalone="no"?>
<!-- Created with Inkscape (http://www.inkscape.org/) -->

<svg
   xmlns:dc="http://purl.org/dc/elements/1.1/"
   xmlns:cc="http://creativecommons.org/ns#"
   xmlns:rdf="http://www.w3.org/1999/02/22-rdf-syntax-ns#"
   xmlns:svg="http://www.w3.org/2000/svg"
   xmlns="http://www.w3.org/2000/svg"
   xmlns:sodipodi="http://sodipodi.sourceforge.net/DTD/sodipodi-0.dtd"
   xmlns:inkscape="http://www.inkscape.org/namespaces/inkscape"
   width="92.638741mm"
   height="92.9571mm"
   viewBox="0 0 92.638739 92.9571"
   version="1.1"
   id="svg8"
   inkscape:version="0.92.4 (5da689c313, 2019-01-14)"
   sodipodi:docname="icon_clickdrag.svg">
  <defs
     id="defs2">
    <inkscape:perspective
       sodipodi:type="inkscape:persp3d"
       inkscape:vp_x="0 : 46.47855 : 1"
       inkscape:vp_y="0 : 1000 : 0"
       inkscape:vp_z="289.94231 : 46.47855 : 1"
       inkscape:persp3d-origin="144.97115 : 30.9857 : 1"
       id="perspective947" />
  </defs>
  <sodipodi:namedview
     id="base"
     pagecolor="#ffffff"
     bordercolor="#666666"
     borderopacity="1.0"
     inkscape:pageopacity="0.0"
     inkscape:pageshadow="2"
     inkscape:zoom="0.49497475"
     inkscape:cx="-614.25896"
     inkscape:cy="4.9321359"
     inkscape:document-units="mm"
     inkscape:current-layer="layer1"
     showgrid="false"
     fit-margin-top="0"
     fit-margin-left="0"
     fit-margin-right="0"
     fit-margin-bottom="0"
     inkscape:window-width="1920"
     inkscape:window-height="1001"
     inkscape:window-x="-9"
     inkscape:window-y="-9"
     inkscape:window-maximized="1" />
  <metadata
     id="metadata5">
    <rdf:RDF>
      <cc:Work
         rdf:about="">
        <dc:format>image/svg+xml</dc:format>
        <dc:type
           rdf:resource="http://purl.org/dc/dcmitype/StillImage" />
        <dc:title></dc:title>
      </cc:Work>
    </rdf:RDF>
  </metadata>
  <g
     inkscape:label="Layer 1"
     inkscape:groupmode="layer"
     id="layer1"
     transform="translate(-222.00595,-61.654774)">
    <g
       id="g860"
       transform="matrix(1.17159,0,0,1.17159,147.54418,-24.077327)"
       style="stroke-width:0.8535409">
      <path
         style="fill:#090909;stroke-width:0.8535409"
         d="m 106.01009,142.50462 c -0.40191,0.0477 -0.75683,-0.008 -0.78863,-0.12407 -0.0318,-0.11577 -0.34992,-0.20391 -0.70682,-0.19582 -0.3569,0.008 -1.39788,-0.36002 -2.3133,-0.81795 -3.261019,-1.63129 -5.783432,-4.00511 -12.143382,-11.42805 -2.406886,-2.80916 -5.076764,-5.77143 -5.933053,-6.58281 -1.374997,-1.30288 -1.606508,-1.656 -1.981478,-3.02225 -0.667535,-2.43393 0.169765,-4.30913 2.386018,-5.34126 1.694181,-0.789 2.984246,-0.56383 5.533972,0.96594 3.451196,2.07061 3.501553,2.00347 2.15488,-2.87295 -0.609887,-2.20932 -1.228674,-4.12111 -1.374648,-4.24855 -0.145946,-0.12745 -0.706033,-0.32343 -1.244644,-0.43549 -2.387955,-0.49692 -5.336198,-2.54998 -6.870037,-4.78415 -1.053896,-1.53507 -1.987629,-4.506808 -2.003312,-6.375818 -0.02851,-3.395159 1.502606,-6.705647 4.093094,-8.849898 0.826522,-0.68415 1.72849,-1.440063 2.004385,-1.679825 0.672591,-0.584499 4.322057,-1.602363 5.185706,-1.446365 0.379187,0.06854 1.439177,0.199405 2.355518,0.290866 1.117567,0.111558 2.334937,0.51759 3.697699,1.233284 5.756652,3.023274 7.862332,9.690549 4.946022,15.660706 -0.41744,0.85456 -0.62008,1.58956 -0.46089,1.67153 0.1563,0.0804 0.74811,0.16517 1.31513,0.18832 0.93857,0.0383 1.87446,0.45063 3.41854,1.5063 0.51637,0.35304 0.63328,0.33407 1.44481,-0.23432 1.08953,-0.7631 1.36224,-0.84782 2.73982,-0.85125 0.73177,-0.002 1.61465,0.31073 2.65232,0.93889 1.54556,0.93566 1.56075,0.93806 2.40025,0.37934 1.12015,-0.74555 3.24118,-1.09255 4.2629,-0.69744 0.45189,0.17471 1.18431,0.6262 1.6276,1.00319 0.7954,0.67643 0.8361,0.79495 3.09111,9.00326 1.70776,6.215 2.28804,8.67297 2.29665,9.72281 0.0312,3.78843 -1.96022,8.21972 -5.23384,11.64619 l -1.84061,1.92654 -6.99048,1.8821 c -3.84475,1.03514 -7.31931,1.92113 -7.72125,1.96878 z m 15.5614,-7.50465 c 3.05657,-3.25781 4.6866,-7.6562 4.25076,-11.47008 -0.2553,-2.23416 -3.4804,-13.97057 -4.14298,-15.07807 -0.68084,-1.13729 -1.52075,-1.51266 -2.89895,-1.29557 -1.40523,0.22133 -2.14785,1.17203 -2.24638,2.8758 -0.13158,2.27537 -1.6029,1.80847 -2.30137,-0.73033 -0.28132,-1.02257 -0.62497,-1.71635 -1.00655,-2.03213 -0.73565,-0.60879 -2.23576,-0.80794 -2.97968,-0.39553 -0.78644,0.43593 -1.59118,1.80476 -1.57158,2.6732 0.0177,0.78547 -0.22213,1.47326 -0.54484,1.56203 -0.63857,0.17568 -1.25139,-0.60966 -1.67377,-2.145 -0.37592,-1.3664 -0.58165,-1.71389 -1.31248,-2.21691 -1.09762,-0.75547 -2.39455,-0.6816 -3.33834,0.19012 -0.61721,0.57007 -0.91937,1.49421 -0.96561,2.95307 -0.0194,0.61079 -1.154442,0.95759 -1.518162,0.46381 -0.146194,-0.1985 -1.177678,-3.67524 -2.292123,-7.7261 -1.307432,-4.752328 -2.183774,-7.553709 -2.470266,-7.89662 -0.581945,-0.696557 -1.911314,-1.041711 -2.931316,-0.761097 -0.587001,0.16149 -0.991271,0.533929 -1.443974,1.330256 l -0.628742,1.105991 3.268055,11.87893 c 4.047047,14.71045 4.204089,13.7726 -1.747728,10.43779 -2.260132,-1.26634 -4.42054,-2.29401 -4.80091,-2.2837 -0.862032,0.0234 -1.770245,0.67116 -2.263015,1.6141 -0.613834,1.17462 -0.07522,2.51597 1.677705,4.17809 0.821064,0.77854 3.388781,3.63193 5.706034,6.34085 2.317243,2.70893 4.765134,5.48137 5.439743,6.16098 3.426029,3.45149 6.694179,5.63008 8.501679,5.66735 0.47001,0.01 4.00575,-0.87179 7.85719,-1.95887 l 7.0026,-1.9765 z M 88.940289,101.15541 c -1.100328,-4.454895 -1.177886,-4.971003 -0.892034,-5.936132 0.892872,-3.01465 4.812935,-4.261945 7.344167,-2.336781 0.924401,0.703067 0.951261,0.76549 2.430866,5.650441 1.077604,3.557652 1.59082,4.944412 1.83462,4.957032 0.632402,0.0328 2.237942,-3.0377 2.612592,-4.996372 0.3199,-1.672256 0.29477,-2.144671 -0.21004,-3.950027 -0.79036,-2.826887 -2.02292,-4.438142 -4.436695,-5.800097 -2.060695,-1.162735 -3.924388,-1.567816 -6.217426,-1.351365 -4.146457,0.391393 -7.912426,3.938797 -8.631132,8.130188 -0.247368,1.442796 -0.195311,1.96436 0.419333,4.198508 0.666166,2.421405 0.768822,2.620765 2.01974,3.923025 1.40169,1.45922 3.923561,2.88674 4.552603,2.57704 0.32255,-0.15886 0.200396,-0.90749 -0.826594,-5.06546 z"
         id="path862"
         inkscape:connector-curvature="0" />
    </g>
  </g>
</svg>
