<?xml version="1.0" encoding="UTF-8" standalone="no"?>
<!-- Created with Inkscape (http://www.inkscape.org/) -->

<svg
   xmlns:dc="http://purl.org/dc/elements/1.1/"
   xmlns:cc="http://creativecommons.org/ns#"
   xmlns:rdf="http://www.w3.org/1999/02/22-rdf-syntax-ns#"
   xmlns:svg="http://www.w3.org/2000/svg"
   xmlns="http://www.w3.org/2000/svg"
   xmlns:sodipodi="http://sodipodi.sourceforge.net/DTD/sodipodi-0.dtd"
   xmlns:inkscape="http://www.inkscape.org/namespaces/inkscape"
   width="210mm"
   height="297mm"
   viewBox="0 0 210 297"
   version="1.1"
   id="svg8"
   inkscape:version="0.92.4 (5da689c313, 2019-01-14)"
   sodipodi:docname="3d-viewer-icon.svg">
  <defs
     id="defs2" />
  <sodipodi:namedview
     id="base"
     pagecolor="#ffffff"
     bordercolor="#666666"
     borderopacity="1.0"
     inkscape:pageopacity="0.0"
     inkscape:pageshadow="2"
     inkscape:zoom="5.6"
     inkscape:cx="544.45292"
     inkscape:cy="486.22245"
     inkscape:document-units="mm"
     inkscape:current-layer="svg8"
     showgrid="false"
     inkscape:window-width="1920"
     inkscape:window-height="1001"
     inkscape:window-x="-9"
     inkscape:window-y="-9"
     inkscape:window-maximized="1" />
  <metadata
     id="metadata5">
    <rdf:RDF>
      <cc:Work
         rdf:about="">
        <dc:format>image/svg+xml</dc:format>
        <dc:type
           rdf:resource="http://purl.org/dc/dcmitype/StillImage" />
        <dc:title></dc:title>
      </cc:Work>
    </rdf:RDF>
  </metadata>
  <g
     id="g833">
    <rect
       ry="4.6774554"
       y="156.81808"
       x="137.53609"
       height="11.292038"
       width="16.205729"
       id="rect829"
       style="opacity:1;fill:#fea501;fill-opacity:1;stroke:none;stroke-width:3;stroke-linecap:round;stroke-linejoin:round;stroke-miterlimit:4;stroke-dasharray:none;stroke-dashoffset:0;stroke-opacity:1" />
    <path
       style="fill:#4fa4c2;stroke-width:1;fill-opacity:1"
       d="m 139.95841,168.22877 c 2.5498,2.19061 3.31856,1.98831 6.55306,2.21527 39.59019,-4.69047 -35.30469,-34.73938 -6.55306,-2.21527 z m 1.50874,-2.26601 c -0.77444,-0.14263 -1.78995,-1.27632 -1.59601,-1.78173 0.22596,-0.58885 1.16606,-0.50699 1.36469,0.11883 0.18848,0.59384 1.16119,0.71736 1.66688,0.21167 0.40929,-0.40929 0.40929,-1.60155 0,-2.01084 -0.17463,-0.17462 -0.53182,-0.3175 -0.79375,-0.3175 -0.71809,0 -0.57136,-0.77069 0.20277,-1.06501 0.5381,-0.20458 0.66164,-0.40914 0.59531,-0.98564 -0.104,-0.90383 -1.08849,-1.15016 -1.56261,-0.39098 -0.21017,0.33653 -0.51991,0.46283 -0.93874,0.38277 -0.79427,-0.15184 -0.78855,-0.44754 0.0244,-1.26046 0.83663,-0.83662 2.43186,-0.89027 3.26943,-0.10995 0.68404,0.63728 0.7635,1.88412 0.15863,2.48899 -0.38419,0.38419 -0.36822,0.46271 0.1852,0.91085 0.43128,0.34923 0.60565,0.76892 0.60565,1.45777 0,1.5459 -1.50721,2.65967 -3.18181,2.35123 z m 4.66347,-3.91186 v -3.83646 h 1.96715 c 1.08194,0 2.27251,0.1161 2.64572,0.25799 1.07252,0.40778 1.735,1.75302 1.73614,3.52546 0.002,2.92553 -1.07655,3.88947 -4.35149,3.88947 h -1.99752 z m 4.40493,2.08482 c 0.49686,-0.64214 0.66404,-2.13731 0.3637,-3.2527 -0.22995,-0.85394 -0.44737,-1.09834 -1.19729,-1.34584 -0.50398,-0.16633 -1.18628,-0.26409 -1.51623,-0.21726 -0.56521,0.0802 -0.60444,0.2214 -0.67843,2.44174 -0.10384,3.11594 -0.0775,3.16877 1.47064,2.94667 0.68955,-0.0989 1.39047,-0.3566 1.55761,-0.57261 z"
       id="path826"
       inkscape:connector-curvature="0"
       sodipodi:nodetypes="cccccsscsccccccscsccccsccsccccccccc" />
  </g>
</svg>
