<?xml version="1.0" encoding="UTF-8" standalone="no"?>
<!-- Created with Inkscape (http://www.inkscape.org/) -->

<svg
   xmlns:dc="http://purl.org/dc/elements/1.1/"
   xmlns:cc="http://creativecommons.org/ns#"
   xmlns:rdf="http://www.w3.org/1999/02/22-rdf-syntax-ns#"
   xmlns:svg="http://www.w3.org/2000/svg"
   xmlns="http://www.w3.org/2000/svg"
   xmlns:sodipodi="http://sodipodi.sourceforge.net/DTD/sodipodi-0.dtd"
   xmlns:inkscape="http://www.inkscape.org/namespaces/inkscape"
   width="688.52917mm"
   height="92.9571mm"
   viewBox="0 0 688.52917 92.9571"
   version="1.1"
   id="svg8"
   inkscape:version="0.92.4 (5da689c313, 2019-01-14)"
   sodipodi:docname="all icons svgs.svg">
  <defs
     id="defs2">
    <inkscape:perspective
       id="perspective947"
       inkscape:persp3d-origin="144.97117 : 30.985699 : 1"
       inkscape:vp_z="289.94233 : 46.478548 : 1"
       inkscape:vp_y="0 : 999.99997 : 0"
       inkscape:vp_x="0 : 46.478548 : 1"
       sodipodi:type="inkscape:persp3d" />
  </defs>
  <sodipodi:namedview
     id="base"
     pagecolor="#ffffff"
     bordercolor="#666666"
     borderopacity="1.0"
     inkscape:pageopacity="0.0"
     inkscape:pageshadow="2"
     inkscape:zoom="0.35"
     inkscape:cx="1313.0019"
     inkscape:cy="508.81043"
     inkscape:document-units="mm"
     inkscape:current-layer="layer1"
     showgrid="false"
     inkscape:snap-global="true"
     fit-margin-top="0"
     fit-margin-left="0"
     fit-margin-right="0"
     fit-margin-bottom="0"
     inkscape:window-width="1920"
     inkscape:window-height="1001"
     inkscape:window-x="-9"
     inkscape:window-y="-9"
     inkscape:window-maximized="1" />
  <metadata
     id="metadata5">
    <rdf:RDF>
      <cc:Work
         rdf:about="">
        <dc:format>image/svg+xml</dc:format>
        <dc:type
           rdf:resource="http://purl.org/dc/dcmitype/StillImage" />
        <dc:title></dc:title>
      </cc:Work>
    </rdf:RDF>
  </metadata>
  <g
     inkscape:label="Layer 1"
     inkscape:groupmode="layer"
     id="layer1"
     transform="translate(507.26133,-41.122639)">
    <path
       style="fill:#040404;stroke-width:1"
       d="m -169.81811,110.98746 c 0.49657,-2.66555 -0.35711,-4.7083 -3.25737,-4.18959 -9.39865,-0.82263 -19.09314,-2.19548 -27.5014,-6.855183 -3.6344,-1.88216 -6.00563,-5.71631 -6.22371,-9.86551 -0.055,-1.76082 -1.83331,-8.1899 1.44773,-5.31376 5.49028,4.38791 12.55693,5.89994 19.25412,7.18086 5.31163,0.96669 10.71155,1.02892 16.08896,1.04058 0.14844,-2.42021 -0.0566,-4.90915 0.49753,-7.27089 4.87011,4.51668 9.38835,9.4222 14.06363,14.15153 -4.78984,4.910953 -9.57967,9.821903 -14.36949,14.732863 0,-1.20363 0,-2.40727 0,-3.6109 z m 20.02019,-12.365303 c 0.0348,-2.37863 0.0696,-4.75726 0.10442,-7.13589 6.01868,-1.5567 12.32009,-3.20238 17.04968,-7.55561 2.31353,1.27567 0.60384,6.08796 0.3713,8.69425 -0.84504,4.42145 -4.35734,7.575733 -8.18025,9.409093 -2.90568,1.40996 -5.85377,3.3414 -9.07023,3.65623 -0.5786,-2.25066 -0.19973,-4.7468 -0.27492,-7.068073 z m 10.78745,-16.62379 c -6.90258,-4.428746 -15.16348,-5.796956 -23.10034,-6.913186 -3.1582,-0.045 -6.66955,-1.37772 -9.64213,-0.0905 -0.84498,1.36526 0.39849,6.281156 -2.04566,3.21866 -2.36541,-2.28926 -4.62598,-4.68844 -6.93064,-7.0412 2.75215,-2.76439 5.35501,-5.70117 8.29769,-8.25342 0.73321,1.28803 0.0877,3.42137 0.68678,4.53209 9.65026,0.74136 19.54275,0.87464 28.74909,4.24109 3.12523,1.34406 6.9188,3.34012 7.63918,7.06617 0.14788,1.632666 -2.02322,4.729086 -3.65397,3.240206 z m -64.12584,-1.9313 c -2.26934,-3.120036 1.04903,-6.178326 3.75457,-7.295976 4.00035,-1.90617 8.28913,-3.27781 12.69723,-3.67219 0,2.10589 0,4.21177 0,6.31765 -5.07305,1.02517 -10.1464,2.49008 -14.43836,5.562646 -0.90137,0.97052 -1.56386,-0.17751 -2.01344,-0.91213 z"
       id="path828"
       inkscape:connector-curvature="0" />
    <ellipse
       style="opacity:1;fill:none;fill-opacity:1;stroke:#00da00;stroke-width:2;stroke-linecap:round;stroke-linejoin:round;stroke-miterlimit:4;stroke-dasharray:none;stroke-dashoffset:0;stroke-opacity:1"
       id="path836"
       cx="-267.04016"
       cy="87.601189"
       rx="45.31937"
       ry="45.47855" />
    <ellipse
       ry="45.47855"
       rx="45.31937"
       cy="87.601189"
       cx="-168.76637"
       id="ellipse840"
       style="opacity:1;fill:none;fill-opacity:1;stroke:#00da00;stroke-width:2;stroke-linecap:round;stroke-linejoin:round;stroke-miterlimit:4;stroke-dasharray:none;stroke-dashoffset:0;stroke-opacity:1" />
    <ellipse
       style="opacity:1;fill:none;fill-opacity:1;stroke:#00da00;stroke-width:2;stroke-linecap:round;stroke-linejoin:round;stroke-miterlimit:4;stroke-dasharray:none;stroke-dashoffset:0;stroke-opacity:1"
       id="ellipse842"
       cx="-69.736603"
       cy="87.601189"
       rx="45.31937"
       ry="45.47855" />
    <g
       id="g860"
       transform="matrix(1.17159,0,0,1.17159,-190.51774,-44.60946)"
       style="stroke-width:0.8535409">
      <path
         style="fill:#090909;stroke-width:0.8535409"
         d="m 106.01009,142.50462 c -0.40191,0.0477 -0.75683,-0.008 -0.78863,-0.12407 -0.0318,-0.11577 -0.34992,-0.20391 -0.70682,-0.19582 -0.3569,0.008 -1.39788,-0.36002 -2.3133,-0.81795 -3.261019,-1.63129 -5.783432,-4.00511 -12.143382,-11.42805 -2.406886,-2.80916 -5.076764,-5.77143 -5.933053,-6.58281 -1.374997,-1.30288 -1.606508,-1.656 -1.981478,-3.02225 -0.667535,-2.43393 0.169765,-4.30913 2.386018,-5.34126 1.694181,-0.789 2.984246,-0.56383 5.533972,0.96594 3.451196,2.07061 3.501553,2.00347 2.15488,-2.87295 -0.609887,-2.20932 -1.228674,-4.12111 -1.374648,-4.24855 -0.145946,-0.12745 -0.706033,-0.32343 -1.244644,-0.43549 -2.387955,-0.49692 -5.336198,-2.54998 -6.870037,-4.78415 -1.053896,-1.53507 -1.987629,-4.506808 -2.003312,-6.375818 -0.02851,-3.395159 1.502606,-6.705647 4.093094,-8.849898 0.826522,-0.68415 1.72849,-1.440063 2.004385,-1.679825 0.672591,-0.584499 4.322057,-1.602363 5.185706,-1.446365 0.379187,0.06854 1.439177,0.199405 2.355518,0.290866 1.117567,0.111558 2.334937,0.51759 3.697699,1.233284 5.756652,3.023274 7.862332,9.690549 4.946022,15.660706 -0.41744,0.85456 -0.62008,1.58956 -0.46089,1.67153 0.1563,0.0804 0.74811,0.16517 1.31513,0.18832 0.93857,0.0383 1.87446,0.45063 3.41854,1.5063 0.51637,0.35304 0.63328,0.33407 1.44481,-0.23432 1.08953,-0.7631 1.36224,-0.84782 2.73982,-0.85125 0.73177,-0.002 1.61465,0.31073 2.65232,0.93889 1.54556,0.93566 1.56075,0.93806 2.40025,0.37934 1.12015,-0.74555 3.24118,-1.09255 4.2629,-0.69744 0.45189,0.17471 1.18431,0.6262 1.6276,1.00319 0.7954,0.67643 0.8361,0.79495 3.09111,9.00326 1.70776,6.215 2.28804,8.67297 2.29665,9.72281 0.0312,3.78843 -1.96022,8.21972 -5.23384,11.64619 l -1.84061,1.92654 -6.99048,1.8821 c -3.84475,1.03514 -7.31931,1.92113 -7.72125,1.96878 z m 15.5614,-7.50465 c 3.05657,-3.25781 4.6866,-7.6562 4.25076,-11.47008 -0.2553,-2.23416 -3.4804,-13.97057 -4.14298,-15.07807 -0.68084,-1.13729 -1.52075,-1.51266 -2.89895,-1.29557 -1.40523,0.22133 -2.14785,1.17203 -2.24638,2.8758 -0.13158,2.27537 -1.6029,1.80847 -2.30137,-0.73033 -0.28132,-1.02257 -0.62497,-1.71635 -1.00655,-2.03213 -0.73565,-0.60879 -2.23576,-0.80794 -2.97968,-0.39553 -0.78644,0.43593 -1.59118,1.80476 -1.57158,2.6732 0.0177,0.78547 -0.22213,1.47326 -0.54484,1.56203 -0.63857,0.17568 -1.25139,-0.60966 -1.67377,-2.145 -0.37592,-1.3664 -0.58165,-1.71389 -1.31248,-2.21691 -1.09762,-0.75547 -2.39455,-0.6816 -3.33834,0.19012 -0.61721,0.57007 -0.91937,1.49421 -0.96561,2.95307 -0.0194,0.61079 -1.154442,0.95759 -1.518162,0.46381 -0.146194,-0.1985 -1.177678,-3.67524 -2.292123,-7.7261 -1.307432,-4.752328 -2.183774,-7.553709 -2.470266,-7.89662 -0.581945,-0.696557 -1.911314,-1.041711 -2.931316,-0.761097 -0.587001,0.16149 -0.991271,0.533929 -1.443974,1.330256 l -0.628742,1.105991 3.268055,11.87893 c 4.047047,14.71045 4.204089,13.7726 -1.747728,10.43779 -2.260132,-1.26634 -4.42054,-2.29401 -4.80091,-2.2837 -0.862032,0.0234 -1.770245,0.67116 -2.263015,1.6141 -0.613834,1.17462 -0.07522,2.51597 1.677705,4.17809 0.821064,0.77854 3.388781,3.63193 5.706034,6.34085 2.317243,2.70893 4.765134,5.48137 5.439743,6.16098 3.426029,3.45149 6.694179,5.63008 8.501679,5.66735 0.47001,0.01 4.00575,-0.87179 7.85719,-1.95887 l 7.0026,-1.9765 z M 88.940289,101.15541 c -1.100328,-4.454895 -1.177886,-4.971003 -0.892034,-5.936132 0.892872,-3.01465 4.812935,-4.261945 7.344167,-2.336781 0.924401,0.703067 0.951261,0.76549 2.430866,5.650441 1.077604,3.557652 1.59082,4.944412 1.83462,4.957032 0.632402,0.0328 2.237942,-3.0377 2.612592,-4.996372 0.3199,-1.672256 0.29477,-2.144671 -0.21004,-3.950027 -0.79036,-2.826887 -2.02292,-4.438142 -4.436695,-5.800097 -2.060695,-1.162735 -3.924388,-1.567816 -6.217426,-1.351365 -4.146457,0.391393 -7.912426,3.938797 -8.631132,8.130188 -0.247368,1.442796 -0.195311,1.96436 0.419333,4.198508 0.666166,2.421405 0.768822,2.620765 2.01974,3.923025 1.40169,1.45922 3.923561,2.88674 4.552603,2.57704 0.32255,-0.15886 0.200396,-0.90749 -0.826594,-5.06546 z"
         id="path862"
         inkscape:connector-curvature="0" />
    </g>
    <path
       inkscape:connector-curvature="0"
       id="path883"
       d="m -352.0307,95.790047 c -2.70179,-2.53704 -4.96916,-4.61283 -5.03856,-4.61283 -0.0695,0 -1.03659,1.29737 -2.1493,2.88302 -1.11274,1.58566 -2.13767,2.99719 -2.27767,3.13672 -0.32919,0.32809 -0.87789,0.34849 -1.24039,0.0461 -0.17633,-0.14707 -0.77405,-1.41612 -2.05294,-4.35911 -0.99228,-2.28336 -2.80861,-6.45568 -4.03629,-9.2718 -1.2277,-2.81612 -2.95443,-6.779079 -3.8372,-8.806544 -0.88276,-2.027478 -1.60503,-3.805435 -1.60503,-3.951066 0,-0.366602 0.47658,-0.804102 0.87596,-0.804102 0.16646,0 0.8208,0.203839 1.4542,0.452917 0.63338,0.249107 3.84386,1.49035 7.13436,2.758247 3.29054,1.267911 8.67505,3.343661 11.96555,4.612804 3.29053,1.269156 6.2814,2.419774 6.64639,2.556934 0.76964,0.28926 1.05277,0.57275 1.05277,1.0541 0,0.25062 -0.0704,0.40191 -0.26971,0.57876 -0.14842,0.13175 -1.64894,1.09579 -3.33468,2.14247 -1.68571,1.04668 -3.06496,1.95644 -3.06496,2.02174 0,0.0655 2.20677,2.19804 4.90394,4.73946 l 4.9039,4.62076 v 0.40134 c 0,0.3998 -0.009,0.40874 -2.13401,2.4071 -2.12301,1.995413 -2.13621,2.005783 -2.559,2.005783 h -0.42498 z m 6.57155,1.36231 c 0.60771,-0.57001 1.1049,-1.07767 1.1049,-1.12812 0,-0.0504 -2.25088,-2.21167 -5.00198,-4.80268 -4.97535,-4.68586 -5.00198,-4.71296 -5.00198,-5.08899 0,-0.22315 0.0702,-0.45909 0.17161,-0.57583 0.0942,-0.10892 1.44835,-0.99566 3.00873,-1.97071 1.5604,-0.97506 2.85526,-1.82536 2.87744,-1.88953 0.052,-0.15012 0.0193,-0.16325 -6.40108,-2.634143 -2.96686,-1.141614 -7.88099,-3.034381 -10.92027,-4.206082 -3.03929,-1.171686 -5.58808,-2.130373 -5.664,-2.130373 -0.0758,0 -0.13814,0.0584 -0.13814,0.129951 0,0.07141 1.01916,2.468937 2.26481,5.327836 1.24564,2.858871 3.25781,7.481311 4.47149,10.272071 2.62679,6.04008 2.64071,6.06998 2.80033,6.02112 0.0682,-0.0208 0.97218,-1.23886 2.00878,-2.70662 1.03659,-1.46779 1.97935,-2.74137 2.09504,-2.83016 0.1245,-0.0955 0.37505,-0.16142 0.61426,-0.16142 0.40254,0 0.42163,0.0162 5.40797,4.70482 2.75219,2.58765 5.04742,4.70493 5.10051,4.70507 0.0531,2.2e-4 0.59379,-0.46608 1.20149,-1.0361 z m -35.54664,-19.647279 c -0.34141,-0.155152 -0.55462,-0.664755 -0.42853,-1.024146 0.10743,-0.306318 2.99168,-3.085185 3.40831,-3.283834 0.60012,-0.286168 1.30596,0.139431 1.30596,0.787384 0,0.330842 -0.0966,0.441099 -1.7439,1.990625 -1.84768,1.738003 -1.94937,1.799228 -2.54184,1.529971 z m -2.64556,-6.297525 c -0.37535,-0.153547 -0.52262,-0.388108 -0.52262,-0.832307 0,-0.230728 0.0741,-0.402805 0.24074,-0.559618 l 0.24073,-0.226438 h 2.51013 2.51012 l 0.24054,0.244111 c 0.2606,0.26451 0.32022,0.734961 0.13443,1.061333 -0.21845,0.384025 -0.63529,0.447658 -2.90677,0.443824 -1.5933,-6.5e-4 -2.21542,-0.03598 -2.44739,-0.130919 z m 3.9721,-5.004192 c -1.03521,-0.96771 -1.68621,-1.649002 -1.75037,-1.83186 -0.24223,-0.690427 0.48426,-1.312474 1.19608,-1.024119 0.17935,0.07266 1.04317,0.814191 1.91975,1.647951 1.49106,1.418219 1.59374,1.538233 1.59374,1.862625 0,0.48371 -0.42785,0.886086 -0.94216,0.886086 -0.34586,0 -0.47146,-0.09604 -2.01704,-1.540683 z m 8.93444,1.271011 c -0.3044,-0.286306 -0.36492,-0.612138 -0.17804,-0.958783 0.21113,-0.391914 3.16543,-3.10492 3.49103,-3.205974 0.60052,-0.186484 1.2062,0.269062 1.2062,0.907135 0,0.196365 -0.35426,0.579727 -1.74393,1.886913 -1.6473,1.549513 -1.76452,1.640381 -2.11621,1.640381 -0.28076,0 -0.44284,-0.06629 -0.65901,-0.269672 z m -3.75414,-1.340401 -0.25952,-0.22623 V 63.546584 61.18544 l 0.24075,-0.226452 c 0.26244,-0.246865 0.79221,-0.305418 1.14708,-0.126767 0.40634,0.204571 0.47567,0.600029 0.47567,2.714156 0,2.114112 -0.0695,2.509596 -0.47567,2.714127 -0.34699,0.174776 -0.84711,0.118602 -1.12831,-0.126491 z"
       style="fill:#060607;stroke-width:0.99999994" />
    <g
       style="stroke-width:0.71271318"
       id="g923"
       transform="matrix(1.4030891,0,0,1.4030891,-294.91112,-129.1053)">
      <path
         style="fill:#000000;stroke-width:0.71271318"
         d="m 18.510755,180.76421 c 0,-0.0297 0.02526,-0.0541 0.05602,-0.0541 0.06174,0 0.05223,-3.74824 -0.0097,-3.81003 -0.01909,-0.0191 -0.420501,-0.083 -0.892003,-0.14217 -5.068834,-0.63566 -9.6582225,-2.87275 -13.2386115,-6.45313 -3.57860705,-3.57861 -5.835712,-8.20849 -6.453462,-13.23762 -0.05787,-0.47095 -0.121224,-0.87236 -0.140837,-0.892 -0.06248,-0.0626 -3.811041,-0.0731 -3.811041,-0.0107 0,0.0308 -0.02429,0.056 -0.05409,0.056 -0.03499,0 -0.05409,-0.66675 -0.05409,-1.89213 0,-1.22538 0.01902,-1.89213 0.05409,-1.89213 0.02972,0 0.05409,0.0252 0.05409,0.056 0,0.0624 3.748582,0.0519 3.811041,-0.0107 0.01961,-0.0196 0.08298,-0.42104 0.140837,-0.892 0.776455,-6.32119 4.142448,-11.97364 9.337269,-15.6799 3.0410785,-2.16967 6.6020105,-3.54913 10.3538015,-4.01095 0.47096,-0.058 0.87236,-0.12146 0.89201,-0.14106 0.06256,-0.0625 0.07303,-3.81104 0.0107,-3.81104 -0.03083,0 -0.05602,-0.0243 -0.05602,-0.0541 0,-0.035 0.666753,-0.0541 1.892133,-0.0541 1.225379,0 1.892133,0.019 1.892133,0.0541 0,0.0297 -0.02526,0.0541 -0.05609,0.0541 -0.06241,0 -0.05186,3.74858 0.0107,3.81104 0.01961,0.0196 0.42105,0.0831 0.892003,0.14106 10.331681,1.27176 18.422391,9.36238 19.691071,19.69085 0.0579,0.47096 0.12123,0.87236 0.14084,0.892 0.0625,0.0626 3.81103,0.0731 3.81103,0.0107 0,-0.0308 0.0243,-0.056 0.0541,-0.056 0.035,0 0.0541,0.66675 0.0541,1.89213 0,1.22538 -0.019,1.89213 -0.0541,1.89213 -0.0297,0 -0.0541,-0.0252 -0.0541,-0.056 0,-0.0624 -3.74857,-0.0519 -3.81103,0.0107 -0.0196,0.0196 -0.083,0.42105 -0.14084,0.892 -0.89053,7.24989 -5.1859,13.58229 -11.596864,17.09655 -2.472304,1.35523 -5.243319,2.24337 -8.094207,2.5943 -0.470953,0.058 -0.872353,0.12145 -0.892003,0.14107 -0.06256,0.0625 -0.0731,3.81103 -0.0107,3.81103 0.03083,0 0.05609,0.0243 0.05609,0.0541 0,0.035 -0.666754,0.0541 -1.892133,0.0541 -1.22538,0 -1.892133,-0.019 -1.892133,-0.0541 z m 0.02318,-7.59943 c 0.0737,-0.0737 0.08495,-0.3164 0.08495,-1.83806 v -1.75312 h 1.784006 1.784014 v 1.75312 c 0,1.52208 0.01122,1.76431 0.085,1.83812 0.04673,0.0467 0.137977,0.074 0.202731,0.0606 0.06471,-0.0135 0.336675,-0.0524 0.604273,-0.0864 1.841687,-0.23459 4.040941,-0.91911 5.814107,-1.80966 3.592823,-1.80441 6.615453,-4.80949 8.454293,-8.40517 0.99823,-1.95194 1.60091,-3.95223 1.94228,-6.44637 0.0507,-0.37095 0.0799,-0.36531 -1.8884,-0.36531 h -1.75312 v -1.784 -1.78402 h 1.75312 c 1.96835,0 1.93917,0.006 1.8884,-0.3653 -0.0152,-0.11129 -0.0868,-0.56724 -0.15896,-1.01325 -1.01946,-6.29808 -5.34507,-11.78306 -11.29844,-14.32671 -1.503504,-0.64239 -3.247629,-1.12697 -4.75328,-1.32063 -0.267598,-0.0344 -0.539526,-0.0736 -0.604273,-0.087 -0.06478,-0.0134 -0.155979,0.0138 -0.202731,0.0606 -0.07377,0.0738 -0.085,0.31603 -0.085,1.83812 v 1.75311 h -1.78401 -1.784006 v -1.75311 c 0,-1.52209 -0.01122,-1.76433 -0.085,-1.83812 -0.04673,-0.0467 -0.137978,-0.074 -0.202732,-0.0606 -0.06478,0.0135 -0.336675,0.0524 -0.604272,0.0864 -1.841688,0.23459 -4.040941,0.91911 -5.814115,1.80965 -1.847861,0.92805 -3.3198125,1.99839 -4.8675135,3.53943 -1.112097,1.10731 -1.701191,1.81402 -2.456205,2.94659 -1.576244,2.3645 -2.661774,5.20398 -2.996785,7.83883 -0.03403,0.26761 -0.07288,0.53953 -0.08631,0.60427 -0.01345,0.0648 0.01382,0.15598 0.06055,0.20273 0.07377,0.0738 0.316029,0.085 1.838114,0.085 h 1.753122 v 1.78402 1.784 h -1.753122 c -1.522085,0 -1.764318,0.0112 -1.838114,0.085 -0.04673,0.0467 -0.074,0.13798 -0.06055,0.20272 0.01345,0.0648 0.0523,0.33668 0.08631,0.60428 0.202175,1.59008 0.758,3.5037 1.493957,5.14344 0.882204,1.96558 2.145681,3.80609 3.719281,5.41792 3.10957,3.18508 6.9131065,5.06781 11.4079275,5.64684 0.0892,0.0115 0.17869,0.0245 0.198868,0.029 0.02021,0.004 0.07491,-0.0302 0.121633,-0.0769 z"
         id="path925"
         inkscape:connector-curvature="0"
         sodipodi:nodetypes="cscssscssssscssscssssscsscssssscsscsssscccscccssccsscscccsccscccscccssccsccccsscccssccssccc" />
    </g>
    <path
       style="color:#000000;font-style:normal;font-variant:normal;font-weight:normal;font-stretch:normal;font-size:medium;line-height:normal;font-family:sans-serif;font-variant-ligatures:normal;font-variant-position:normal;font-variant-caps:normal;font-variant-numeric:normal;font-variant-alternates:normal;font-feature-settings:normal;text-indent:0;text-align:start;text-decoration:none;text-decoration-line:none;text-decoration-style:solid;text-decoration-color:#000000;letter-spacing:normal;word-spacing:normal;text-transform:none;writing-mode:lr-tb;direction:ltr;text-orientation:mixed;dominant-baseline:auto;baseline-shift:baseline;text-anchor:start;white-space:normal;shape-padding:0;clip-rule:nonzero;display:inline;overflow:visible;visibility:visible;opacity:1;isolation:auto;mix-blend-mode:normal;color-interpolation:sRGB;color-interpolation-filters:linearRGB;solid-color:#000000;solid-opacity:1;vector-effect:none;fill:#000000;fill-opacity:1;fill-rule:nonzero;stroke:none;stroke-width:5.00000048;stroke-linecap:round;stroke-linejoin:round;stroke-miterlimit:4;stroke-dasharray:none;stroke-dashoffset:0;stroke-opacity:1;color-rendering:auto;image-rendering:auto;shape-rendering:auto;text-rendering:auto;enable-background:accumulate"
       d="m -362.94473,50.344653 c -17.32148,0 -31.39221,14.124387 -31.39221,31.497364 0,17.37298 21.65255,46.234433 31.34082,46.163893 9.60141,-0.0699 31.44488,-28.790913 31.44488,-46.163893 0,-17.372977 -14.07201,-31.497364 -31.39349,-31.497364 z m 0,3.28245 c 15.54129,0 28.11105,12.609694 28.11105,28.214914 0,15.60522 -12.56976,28.214903 -28.11105,28.214903 -15.54129,0 -28.10977,-12.609683 -28.10977,-28.214903 0,-15.60522 12.56848,-28.214914 28.10977,-28.214914 z"
       id="ellipse967"
       inkscape:connector-curvature="0"
       sodipodi:nodetypes="ssssssssss" />
    <path
       style="fill:#060607;stroke-width:1.00000012"
       d="m -259.11894,100.92718 c -3.05813,-2.871663 -5.62454,-5.221223 -5.7031,-5.221223 -0.0786,0 -1.1733,1.46849 -2.43278,3.26327 -1.25949,1.794793 -2.41961,3.392493 -2.57807,3.550423 -0.37261,0.37136 -0.99368,0.39446 -1.40398,0.0521 -0.19959,-0.16647 -0.87614,-1.60288 -2.32371,-4.934033 -1.12316,-2.58451 -3.17904,-7.30713 -4.56864,-10.49467 -1.38963,-3.18754 -3.34409,-7.67317 -4.3433,-9.968033 -0.99919,-2.294877 -1.81672,-4.307335 -1.81672,-4.472174 0,-0.414947 0.53944,-0.910161 0.99149,-0.910161 0.18843,0 0.92906,0.230729 1.646,0.512658 0.71692,0.281964 4.35084,1.686909 8.07533,3.122031 3.72452,1.435145 9.8192,3.784667 13.5437,5.221189 3.72452,1.43654 7.10986,2.73892 7.52299,2.89416 0.87114,0.32744 1.19162,0.64829 1.19162,1.19313 0,0.28367 -0.0797,0.45491 -0.30529,0.65509 -0.16799,0.14914 -1.86642,1.24033 -3.77449,2.42505 -1.90805,1.18472 -3.4692,2.21448 -3.4692,2.28838 0,0.074 2.49782,2.48795 5.55072,5.36454 l 5.55068,5.230223 v 0.45427 c 0,0.45254 -0.0104,0.46265 -2.41546,2.72457 -2.40302,2.25859 -2.41796,2.27032 -2.89651,2.27032 h -0.48103 z m 7.43827,1.542 c 0.68787,-0.64521 1.25064,-1.21981 1.25064,-1.27692 0,-0.057 -2.54776,-2.503363 -5.66171,-5.436113 -5.63154,-5.30389 -5.66168,-5.33456 -5.66168,-5.76017 0,-0.25261 0.0794,-0.51965 0.19424,-0.6518 0.10664,-0.12324 1.63937,-1.12697 3.40555,-2.23063 1.76621,-1.10365 3.23184,-2.0661 3.25695,-2.13874 0.0589,-0.16991 0.0219,-0.18476 -7.24532,-2.98156 -3.35817,-1.29218 -8.92043,-3.434576 -12.36056,-4.760798 -3.44015,-1.326229 -6.32509,-2.411362 -6.41103,-2.411362 -0.0858,0 -0.15638,0.066 -0.15638,0.147081 0,0.0808 1.15359,2.794563 2.56353,6.030529 1.40992,3.23592 3.68748,8.46801 5.06123,11.62684 2.97325,6.83672 2.98901,6.87055 3.16968,6.81527 0.0772,-0.0234 1.10039,-1.40226 2.27371,-3.0636 1.17331,-1.6614 2.24041,-3.10292 2.37136,-3.20344 0.14091,-0.10809 0.42452,-0.18271 0.69528,-0.18271 0.45563,0 0.47723,0.0183 6.12123,5.32535 3.11518,2.928943 5.71313,5.325473 5.77323,5.325623 0.0601,2.4e-4 0.6721,-0.52755 1.35994,-1.17275 z"
       id="path975"
       inkscape:connector-curvature="0"
       sodipodi:nodetypes="csccccccssccscsccsccscscccscscccccsscscccscccc" />
    <ellipse
       ry="45.47855"
       rx="45.31937"
       cy="87.601189"
       cx="-362.66815"
       id="ellipse983"
       style="opacity:1;fill:none;fill-opacity:1;stroke:#00da00;stroke-width:2;stroke-linecap:round;stroke-linejoin:round;stroke-miterlimit:4;stroke-dasharray:none;stroke-dashoffset:0;stroke-opacity:1" />
    <ellipse
       style="opacity:1;fill:none;fill-opacity:1;stroke:#00da00;stroke-width:2;stroke-linecap:round;stroke-linejoin:round;stroke-miterlimit:4;stroke-dasharray:none;stroke-dashoffset:0;stroke-opacity:1"
       id="ellipse985"
       cx="-460.94196"
       cy="87.601189"
       rx="45.31937"
       ry="45.47855" />
    <path
       sodipodi:nodetypes="csccccccssccscsccsccscscccscscccccsscscccscccc"
       inkscape:connector-curvature="0"
       id="path987"
       d="m -453.77668,93.745627 c -3.05814,-2.87166 -5.62454,-5.22122 -5.7031,-5.22122 -0.0786,0 -1.1733,1.46849 -2.43278,3.26327 -1.25949,1.79479 -2.41961,3.39249 -2.57807,3.55042 -0.37261,0.37136 -0.99368,0.39446 -1.40398,0.0521 -0.1996,-0.16647 -0.87614,-1.60288 -2.32371,-4.93403 -1.12316,-2.58451 -3.17904,-7.30713 -4.56864,-10.49467 -1.38963,-3.187537 -3.34409,-7.673167 -4.3433,-9.96803 -0.99919,-2.294877 -1.81672,-4.307335 -1.81672,-4.472174 0,-0.414947 0.53944,-0.910161 0.99149,-0.910161 0.18843,0 0.92906,0.230729 1.646,0.512658 0.71692,0.281964 4.35084,1.686909 8.07533,3.122031 3.72452,1.435145 9.8192,3.784667 13.5437,5.221189 3.72452,1.43654 7.10985,2.73892 7.52299,2.89416 0.87114,0.32744 1.19162,0.64829 1.19162,1.19313 0,0.28367 -0.0797,0.45491 -0.30529,0.65509 -0.16799,0.14914 -1.86642,1.24033 -3.77449,2.425047 -1.90806,1.18472 -3.4692,2.21448 -3.4692,2.28838 0,0.074 2.49782,2.48795 5.55072,5.36454 l 5.55068,5.23022 v 0.45427 c 0,0.45254 -0.0104,0.46265 -2.41546,2.72457 -2.40302,2.25859 -2.41797,2.27032 -2.89651,2.27032 h -0.48103 z m 7.43827,1.542 c 0.68787,-0.64521 1.25064,-1.21981 1.25064,-1.27692 0,-0.057 -2.54776,-2.50336 -5.66171,-5.43611 -5.63154,-5.30389 -5.66168,-5.33456 -5.66168,-5.76017 0,-0.25261 0.0794,-0.51965 0.19423,-0.6518 0.10665,-0.12324 1.63938,-1.12697 3.40556,-2.23063 1.76621,-1.103647 3.23184,-2.066097 3.25695,-2.138737 0.0589,-0.16991 0.0219,-0.18476 -7.24532,-2.98156 -3.35817,-1.29218 -8.92043,-3.434576 -12.36056,-4.760798 -3.44015,-1.326229 -6.3251,-2.411362 -6.41103,-2.411362 -0.0858,0 -0.15638,0.066 -0.15638,0.147081 0,0.0808 1.15359,2.794563 2.56352,6.030529 1.40993,3.23592 3.68749,8.468007 5.06124,11.626837 2.97325,6.83672 2.98901,6.87055 3.16968,6.81527 0.0772,-0.0234 1.10039,-1.40226 2.27371,-3.0636 1.17331,-1.6614 2.24041,-3.10292 2.37136,-3.20344 0.14091,-0.10809 0.42452,-0.18271 0.69528,-0.18271 0.45563,0 0.47723,0.0183 6.12123,5.32535 3.11518,2.92894 5.71313,5.32547 5.77322,5.32562 0.0601,2.4e-4 0.6721,-0.52755 1.35995,-1.17275 z"
       style="fill:#060607;stroke-width:1.00000012" />
    <path
       sodipodi:nodetypes="ssssssssss"
       inkscape:connector-curvature="0"
       id="path989"
       d="m -460.84056,50.344653 c -17.32148,0 -31.39221,14.124387 -31.39221,31.497364 0,17.37298 21.65255,46.234433 31.34082,46.163893 9.60141,-0.0699 31.44488,-28.790913 31.44488,-46.163893 0,-17.372977 -14.07201,-31.497364 -31.39349,-31.497364 z m 0,3.28245 c 15.54129,0 28.11105,12.609694 28.11105,28.214914 0,15.60522 -12.56976,28.214903 -28.11105,28.214903 -15.54128,0 -28.10977,-12.609683 -28.10977,-28.214903 0,-15.60522 12.56849,-28.214914 28.10977,-28.214914 z"
       style="color:#000000;font-style:normal;font-variant:normal;font-weight:normal;font-stretch:normal;font-size:medium;line-height:normal;font-family:sans-serif;font-variant-ligatures:normal;font-variant-position:normal;font-variant-caps:normal;font-variant-numeric:normal;font-variant-alternates:normal;font-feature-settings:normal;text-indent:0;text-align:start;text-decoration:none;text-decoration-line:none;text-decoration-style:solid;text-decoration-color:#000000;letter-spacing:normal;word-spacing:normal;text-transform:none;writing-mode:lr-tb;direction:ltr;text-orientation:mixed;dominant-baseline:auto;baseline-shift:baseline;text-anchor:start;white-space:normal;shape-padding:0;clip-rule:nonzero;display:inline;overflow:visible;visibility:visible;opacity:1;isolation:auto;mix-blend-mode:normal;color-interpolation:sRGB;color-interpolation-filters:linearRGB;solid-color:#000000;solid-opacity:1;vector-effect:none;fill:#000000;fill-opacity:1;fill-rule:nonzero;stroke:none;stroke-width:5.00000048;stroke-linecap:round;stroke-linejoin:round;stroke-miterlimit:4;stroke-dasharray:none;stroke-dashoffset:0;stroke-opacity:1;color-rendering:auto;image-rendering:auto;shape-rendering:auto;text-rendering:auto;enable-background:accumulate" />
    <path
       id="rect859"
       style="opacity:1;fill:#b6b6b6;fill-opacity:1;stroke:#000000;stroke-width:3;stroke-linecap:butt;stroke-linejoin:bevel;stroke-miterlimit:4;stroke-dasharray:none;stroke-dashoffset:0;stroke-opacity:1"
       d="m 1.8150621,78.06992 0.015326,3.13156 c 0.023768,0.06833 -0.077846,-1.680917 -0.040902,-1.618213 0.094265,0.160015 0.1125327,0.858504 0.010228,0.86353 V 113.6551 H 38.897443 V 78.115758 Z"
       inkscape:connector-curvature="0"
       sodipodi:nodetypes="cccccccc" />
    <path
       inkscape:connector-curvature="0"
       id="rect867"
       style="opacity:1;fill:#b6b6b6;fill-opacity:1;stroke:#000000;stroke-width:3;stroke-linecap:square;stroke-linejoin:bevel;stroke-miterlimit:4;stroke-dasharray:none;stroke-dashoffset:0;stroke-opacity:1"
       d="M 60.615597,58.963063 38.89745,77.942892 V 113.6551 L 60.615597,94.675272 Z" />
    <path
       id="rect871"
       style="opacity:1;fill:#b6b6b6;fill-opacity:1;stroke:#000000;stroke-width:3;stroke-linecap:round;stroke-linejoin:round;stroke-miterlimit:4;stroke-dasharray:none;stroke-dashoffset:0;stroke-opacity:1"
       d="M 24.194308,59.148515 1.9049993,78.167117 H 38.380506 L 60.669818,59.148515 Z"
       inkscape:connector-curvature="0" />
    <path
       sodipodi:nodetypes="cccccccc"
       inkscape:connector-curvature="0"
       d="m 107.76151,77.138468 0.0164,3.387904 c 0.0255,0.07393 -0.0835,-1.818514 -0.0439,-1.750677 0.10106,0.173114 0.12064,0.92878 0.011,0.934217 v 35.926678 h 39.7715 V 77.188059 Z"
       style="opacity:1;fill:#d8d8d8;fill-opacity:1;stroke:#000000;stroke-width:3;stroke-linecap:butt;stroke-linejoin:bevel;stroke-miterlimit:4;stroke-dasharray:none;stroke-dashoffset:0;stroke-opacity:1"
       id="path945" />
    <path
       d="M 161.45073,56.469825 147.51656,77.001038 V 115.63659 L 161.30424,81.602907 Z"
       style="opacity:1;fill:#b5b5b5;fill-opacity:1;stroke:#000000;stroke-width:3;stroke-linecap:round;stroke-linejoin:round;stroke-miterlimit:4;stroke-dasharray:none;stroke-dashoffset:0;stroke-opacity:1"
       id="path947"
       inkscape:connector-curvature="0"
       sodipodi:nodetypes="ccccc" />
    <path
       inkscape:connector-curvature="0"
       d="m 143.79257,56.469825 -35.93464,20.773797 h 39.10443 l 14.48837,-20.773797 z"
       style="opacity:1;fill:#f1f1f1;fill-opacity:1;stroke:#000000;stroke-width:3;stroke-linecap:round;stroke-linejoin:bevel;stroke-miterlimit:4;stroke-dasharray:none;stroke-dashoffset:0;stroke-opacity:1"
       id="path949"
       sodipodi:nodetypes="ccccc" />
    <ellipse
       ry="45.47855"
       rx="45.31937"
       cy="87.601189"
       cx="32.894897"
       id="ellipse976"
       style="opacity:1;fill:none;fill-opacity:1;stroke:#00da00;stroke-width:2;stroke-linecap:round;stroke-linejoin:round;stroke-miterlimit:4;stroke-dasharray:none;stroke-dashoffset:0;stroke-opacity:1" />
    <ellipse
       style="opacity:1;fill:none;fill-opacity:1;stroke:#00da00;stroke-width:2;stroke-linecap:round;stroke-linejoin:round;stroke-miterlimit:4;stroke-dasharray:none;stroke-dashoffset:0;stroke-opacity:1"
       id="ellipse978"
       cx="32.894897"
       cy="87.601189"
       rx="45.31937"
       ry="45.47855" />
    <ellipse
       ry="45.47855"
       rx="45.31937"
       cy="87.601189"
       cx="134.94847"
       id="ellipse984"
       style="opacity:1;fill:none;fill-opacity:1;stroke:#00da00;stroke-width:2;stroke-linecap:round;stroke-linejoin:round;stroke-miterlimit:4;stroke-dasharray:none;stroke-dashoffset:0;stroke-opacity:1" />
  </g>
</svg>
