<?xml version="1.0" encoding="UTF-8" standalone="no"?>
<!-- Created with Inkscape (http://www.inkscape.org/) -->

<svg
   xmlns:dc="http://purl.org/dc/elements/1.1/"
   xmlns:cc="http://creativecommons.org/ns#"
   xmlns:rdf="http://www.w3.org/1999/02/22-rdf-syntax-ns#"
   xmlns:svg="http://www.w3.org/2000/svg"
   xmlns="http://www.w3.org/2000/svg"
   xmlns:sodipodi="http://sodipodi.sourceforge.net/DTD/sodipodi-0.dtd"
   xmlns:inkscape="http://www.inkscape.org/namespaces/inkscape"
   width="324.43451mm"
   height="345.43274mm"
   viewBox="0 0 324.43451 345.43274"
   version="1.1"
   id="svg8"
   inkscape:version="0.92.4 (5da689c313, 2019-01-14)"
   sodipodi:docname="quoteSVG.svg">
  <defs
     id="defs2" />
  <sodipodi:namedview
     id="base"
     pagecolor="#ffffff"
     bordercolor="#666666"
     borderopacity="1.0"
     inkscape:pageopacity="0.0"
     inkscape:pageshadow="2"
     inkscape:zoom="0.35"
     inkscape:cx="1308.7169"
     inkscape:cy="747.31238"
     inkscape:document-units="mm"
     inkscape:current-layer="svg8"
     showgrid="false"
     fit-margin-top="0"
     fit-margin-left="0"
     fit-margin-right="0"
     fit-margin-bottom="0"
     inkscape:window-width="1920"
     inkscape:window-height="1001"
     inkscape:window-x="-9"
     inkscape:window-y="-9"
     inkscape:window-maximized="1" />
  <metadata
     id="metadata5">
    <rdf:RDF>
      <cc:Work
         rdf:about="">
        <dc:format>image/svg+xml</dc:format>
        <dc:type
           rdf:resource="http://purl.org/dc/dcmitype/StillImage" />
        <dc:title></dc:title>
      </cc:Work>
    </rdf:RDF>
  </metadata>
  <path
     inkscape:connector-curvature="0"
     id="path826"
     d="m 40.305569,345.1472 c -10.03343,-0.26031 -12.28304,-0.52468 -16.41042,-1.92849 -9.25043,-3.14628 -16.88964,-9.9976 -20.82525,-18.67741 -2.26573995,-4.99698 -2.45875995,-6.4739 -2.86086995,-21.88991 -0.43053,-16.50535 -0.14564,-93.06 0.39712,-106.71528 C 2.851429,139.44765 10.535219,103.38756 26.331039,75.209042 c 14.73302,-26.28255 35.78484,-48.808608 61.91739,-66.2533663 6.63329,-4.4280492 10.56193,-6.6188602 14.370241,-8.01359223 2.38328,-0.872836 3.02078,-0.950645 7.71328,-0.94143300149 C 120.37084,0.02036047 126.84196,2.7210985 133.29022,9.5823517 c 6.14442,6.5379563 9.54561,16.4478693 8.48459,24.7212643 -1.1885,9.267448 -5.43573,15.545562 -15.92064,23.533365 -21.92217,16.701151 -35.423591,36.796311 -43.531731,64.791479 -4.7069,16.25165 -8.49409,41.99153 -8.76168,59.54932 l -0.0941,6.17361 6.52639,0.0828 c 17.04519,0.21619 38.454591,0.83252 40.040281,1.15267 4.76229,0.96151 10.54023,4.18457 14.97595,8.35391 4.37209,4.10951 7.11012,8.28255 10.02656,15.28148 l 0.95551,2.29306 -0.1135,50.8 -0.1135,50.8 -0.77957,2.45677 c -1.88704,5.94689 -5.07912,11.16943 -9.60562,15.71566 -3.52363,3.53899 -7.37667,6.05409 -11.39687,7.43938 -5.39631,1.85948 -7.38493,2.10458 -19.82396,2.4433 -13.220761,0.36001 -49.592161,0.3468 -63.852771,-0.0232 z m 187.148591,0.0179 c -10.46286,-0.15501 -20.01907,-0.45425 -21.44402,-0.67148 -7.29644,-1.11235 -16.17777,-6.66314 -21.06634,-13.16638 -2.04726,-2.72345 -4.49546,-7.74245 -5.4697,-11.2133 -1.24673,-4.44162 -1.41937,-16.24109 -1.04626,-71.50954 0.42419,-62.83429 0.74666,-74.51585 2.49102,-90.23907 3.58028,-32.27161 10.23959,-57.91393 20.064,-77.258338 8.70222,-17.1348 19.9929,-32.547036 34.3874,-46.940192 10.40264,-10.401682 19.53093,-17.857015 31.82833,-25.9951045 10.92531,-7.23007603 13.18305,-8.09616703 21.10973,-8.09788703 4.26872,-9.27e-4 5.83724,0.143272 8.11389,0.74593 11.17562,2.95833403 19.40415,11.51924653 22.28547,23.18564853 0.83802,3.393152 0.83782,11.456798 -3.6e-4,14.591881 -1.89406,7.084385 -5.10378,11.186241 -14.85032,18.977956 -8.85599,7.079768 -19.7739,17.990218 -25.31299,25.295658 -2.55055,3.3639 -6.02841,9.19366 -8.86856,14.86594 -9.2827,18.539118 -15.1329,41.924598 -17.68223,70.682668 -0.62175,7.01371 -1.39586,19.73557 -1.21155,19.91085 0.0727,0.0692 10.76215,0.24295 23.7543,0.38621 l 23.62208,0.26047 4.77652,2.40811 c 5.3974,2.72112 8.47086,4.90675 11.59241,8.24369 4.22724,4.51893 6.8773,9.34847 8.40386,15.3154 0.79229,3.09681 0.89625,4.42605 1.18977,15.21139 0.41852,15.37913 0.41853,55.87799 10e-6,72.49583 -0.30802,12.23014 -0.38536,13.27511 -1.22711,16.58056 -1.79158,7.03532 -6.02404,13.57404 -11.80509,18.23768 -5.0701,4.09009 -11.05225,6.53075 -18.0176,7.35098 -4.10317,0.48319 -42.60895,0.68532 -65.61666,0.34444 z"
     style="fill:#000000;stroke-width:1" />
</svg>
