<?xml version="1.0" standalone="no"?>
<!DOCTYPE svg PUBLIC "-//W3C//DTD SVG 20010904//EN"
 "http://www.w3.org/TR/2001/REC-SVG-20010904/DTD/svg10.dtd">
<svg version="1.0" xmlns="http://www.w3.org/2000/svg"
 width="500.000000pt" height="500.000000pt" viewBox="0 0 500.000000 500.000000"
 preserveAspectRatio="xMidYMid meet">
<metadata>
Created by potrace 1.11, written by Peter Selinger 2001-2013
</metadata>
<g transform="translate(0.000000,500.000000) scale(0.100000,-0.100000)"
fill="#000000" stroke="none">
<path d="M849 4176 c-2 -2 -33 -6 -69 -10 -137 -12 -258 -39 -340 -73 -8 -3
-17 -7 -20 -8 -75 -25 -184 -100 -244 -167 -52 -57 -102 -142 -111 -187 -2
-12 -7 -26 -10 -32 -25 -40 -27 -252 -4 -379 11 -58 23 -114 28 -125 4 -11 18
-51 30 -90 13 -38 29 -83 36 -100 63 -146 83 -189 130 -278 53 -102 117 -213
133 -232 4 -5 11 -17 14 -26 7 -19 171 -264 243 -364 61 -85 168 -228 175
-235 3 -3 21 -25 40 -50 19 -25 37 -47 40 -50 3 -3 21 -25 40 -50 49 -64 63
-81 80 -99 8 -9 33 -39 55 -66 22 -28 44 -55 50 -61 5 -6 33 -37 60 -69 130
-153 166 -190 254 -260 157 -124 257 -188 376 -237 88 -36 177 -59 280 -72
111 -14 145 -18 205 -21 36 -2 119 -7 185 -11 157 -9 154 -9 290 11 17 2 48 7
70 9 97 13 167 24 325 51 52 9 108 18 124 21 16 3 32 7 35 9 4 2 26 6 51 10
25 4 47 8 50 10 3 2 21 6 41 9 20 3 108 24 195 47 186 47 175 45 194 51 8 3
58 19 110 36 629 199 973 504 973 862 -1 305 -239 651 -694 1007 -337 263
-816 537 -1309 746 -58 24 -143 59 -190 77 -47 17 -94 36 -105 41 -11 5 -33
13 -50 19 -16 5 -74 24 -127 44 -54 19 -98 32 -98 29 0 -3 -6 -1 -12 5 -11 8
-287 92 -353 107 -11 2 -45 11 -75 19 -54 15 -280 64 -330 71 -14 2 -50 8 -80
14 -30 5 -77 13 -105 16 -27 3 -65 8 -84 11 -18 3 -54 8 -80 10 -62 6 -417 14
-422 10z"/>
</g>
</svg>
